<svg width="70" height="66" viewBox="0 0 70 66" fill="none" xmlns="http://www.w3.org/2000/svg">
<path d="M69.5994 37.0895L64.0216 31.5264V31.5263L57.4313 24.9535C57.175 24.6978 56.8273 24.5542 56.4647 24.5542H49.2188V17.4808C49.2188 14.7868 47.0217 12.5951 44.3209 12.5951H41.2891V1.36381C41.2891 0.610578 40.677 0 39.9219 0H9.29688C8.54178 0 7.92969 0.610578 7.92969 1.36381V12.5952H4.89781C2.19707 12.5952 0 14.7868 0 17.4809V58.0899C0 58.8431 0.61209 59.4537 1.36719 59.4537H7.42779C7.42383 59.5443 7.42082 59.635 7.42082 59.7265C7.42082 61.0416 7.82934 62.2629 8.52551 63.2724H1.36719C0.61209 63.2724 0 63.883 0 64.6362C0 65.3894 0.61209 66 1.36719 66H22.8303C23.5854 66 24.1974 65.3894 24.1974 64.6362C24.1974 63.883 23.5854 63.2724 22.8303 63.2724H18.8943C19.5903 62.2629 19.9989 61.0416 19.9989 59.7265C19.9989 56.2673 17.1776 53.4529 13.7099 53.4529C11.331 53.4529 9.25654 54.7776 8.18822 56.7261H2.73438V52.0891H67.2656V56.7261H59.1154C58.0471 54.7776 55.9727 53.4529 53.5938 53.4529C51.2075 53.4529 49.1276 54.7857 48.0621 56.7439C47.9932 56.7333 47.9232 56.7261 47.8514 56.7261H25.3842C24.6291 56.7261 24.017 57.3367 24.017 58.0899C24.017 58.8431 24.6291 59.4537 25.3842 59.4537H47.3117C47.3077 59.5443 47.3047 59.635 47.3047 59.7265C47.3047 61.0416 47.7132 62.2629 48.4092 63.2724H39.6747C38.9196 63.2724 38.3075 63.883 38.3075 64.6362C38.3075 65.3894 38.9196 66 39.6747 66H53.591C53.592 66 53.5928 66 53.5936 66C53.5944 66 53.5954 66 53.5962 66H62.7539C63.509 66 64.1211 65.3894 64.1211 64.6362C64.1211 63.883 63.509 63.2724 62.7539 63.2724H58.7783C59.4743 62.2629 59.8828 61.0416 59.8828 59.7265C59.8828 59.635 59.8798 59.5443 59.8758 59.4537H68.6328C69.3879 59.4537 70 58.8431 70 58.0899V38.054C70 37.6923 69.8559 37.3454 69.5994 37.0895ZM13.7099 56.1806C15.6699 56.1806 17.2646 57.7713 17.2646 59.7265C17.2646 61.6816 15.6699 63.2724 13.7099 63.2724C11.7499 63.2724 10.1552 61.6816 10.1552 59.7265C10.1552 57.7713 11.7497 56.1806 13.7099 56.1806ZM10.6641 2.72762H38.5547V30.5494C38.5547 32.2038 37.2054 33.5498 35.5469 33.5498H13.6719C12.0133 33.5498 10.6641 32.2038 10.6641 30.5494V2.72762ZM46.4844 49.2523H2.73438V17.4809C2.73438 16.291 3.70494 15.3228 4.89781 15.3228H7.92969V30.5494C7.92969 33.7078 10.5056 36.2774 13.6719 36.2774H35.5469C38.7131 36.2774 41.2891 33.7078 41.2891 30.5494V15.3228H44.3209C45.5138 15.3228 46.4844 16.291 46.4844 17.4809V49.2523ZM53.5963 63.2722H53.5912C51.6322 63.2709 50.0391 61.6807 50.0391 59.7263C50.0391 57.7712 51.6338 56.1804 53.5938 56.1804C55.5537 56.1804 57.1484 57.7712 57.1484 59.7263C57.1484 61.6807 55.5553 63.2707 53.5963 63.2722ZM55.8532 27.2818H55.8984L61.1211 32.4908L56.016 37.5832C55.9125 37.3038 55.8532 37.0032 55.8532 36.6883V27.2818ZM67.2656 49.2523H49.2188V27.2819H53.1188V36.6884C53.1188 39.6232 55.5122 42.0107 58.4542 42.0107H67.2656V49.2523ZM67.2656 39.2831H58.4542C58.3659 39.2831 58.2786 39.2784 58.1924 39.2698L63.0548 34.4195L67.2656 38.619V39.2831Z" fill="#FB0040"/>
<path d="M35.0335 63.2724H35.0157C34.2606 63.2724 33.6485 63.883 33.6485 64.6362C33.6485 65.3894 34.2606 66 35.0157 66H35.0335C35.7886 66 36.4007 65.3894 36.4007 64.6362C36.4007 63.883 35.7886 63.2724 35.0335 63.2724Z" fill="#FB0040"/>
<path d="M31.1719 6.62744C30.4168 6.62744 29.8047 7.23802 29.8047 7.99125V12.5471C29.8047 15.4047 27.474 17.7295 24.6094 17.7295C21.7447 17.7295 19.4141 15.4047 19.4141 12.5471V7.99125C19.4141 7.23802 18.802 6.62744 18.0469 6.62744C17.2918 6.62744 16.6797 7.23802 16.6797 7.99125V12.5471C16.6797 16.9088 20.237 20.4572 24.6094 20.4572C28.9818 20.4572 32.5391 16.9087 32.5391 12.5471V7.99125C32.5391 7.23802 31.927 6.62744 31.1719 6.62744Z" fill="#FB0040"/>
<path d="M33.4573 40.0918H17.2266C16.4715 40.0918 15.8594 40.7024 15.8594 41.4556C15.8594 42.2089 16.4715 42.8194 17.2266 42.8194H33.4573C34.2124 42.8194 34.8245 42.2089 34.8245 41.4556C34.8245 40.7024 34.2124 40.0918 33.4573 40.0918Z" fill="#FB0040"/>
<path d="M12.9719 40.4914C12.7176 40.2377 12.3648 40.0918 12.0053 40.0918C11.6457 40.0918 11.293 40.2377 11.0387 40.4914C10.783 40.7451 10.6381 41.0969 10.6381 41.4556C10.6381 41.8143 10.783 42.1662 11.0387 42.4198C11.293 42.6735 11.6443 42.8194 12.0053 42.8194C12.3648 42.8194 12.7176 42.6735 12.9719 42.4198C13.2262 42.1662 13.3725 41.8143 13.3725 41.4556C13.3725 41.0969 13.2262 40.7451 12.9719 40.4914Z" fill="#FB0040"/>
</svg>
