<svg width="70" height="70" viewBox="0 0 70 70" fill="none" xmlns="http://www.w3.org/2000/svg">
<path d="M68.8661 14.9006L60.2562 2.65002C59.09 0.990664 57.1826 0 55.1545 0H22.2286C20.2002 0 18.293 0.990664 17.1266 2.65016L8.51676 14.9007C7.77492 15.956 7.38281 17.1959 7.38281 18.4862V26.5918C7.38281 27.3468 7.9949 27.959 8.75 27.959C9.5051 27.959 10.1172 27.3468 10.1172 26.5918V18.4862C10.1172 18.4283 10.121 18.371 10.1237 18.3136H28.3175V31.3086C28.3175 31.797 28.578 32.2484 29.0011 32.4926C29.4242 32.737 29.9452 32.7369 30.3682 32.4927L38.7477 27.6562L47.0079 32.4888C47.2212 32.6134 47.4596 32.6758 47.6983 32.6758C47.933 32.6758 48.1678 32.6155 48.3785 32.4946C48.8034 32.2509 49.0655 31.7985 49.0655 31.3086V18.3136H67.2592C67.2619 18.371 67.2658 18.4283 67.2658 18.4862V56.3816C67.2656 58.3122 65.6949 59.8828 63.7644 59.8828H28.7565C28.0014 59.8828 27.3893 60.495 27.3893 61.25C27.3893 62.005 28.0014 62.6172 28.7565 62.6172H63.7643C67.2026 62.6172 70 59.8199 70 56.3816V18.4862C70 17.1959 69.608 15.956 68.8661 14.9006ZM42.5466 2.73438L45.9251 15.5792H31.4579L34.8363 2.73438H42.5466ZM28.6307 15.5792H11.382L19.3638 4.22242C20.0186 3.29055 21.0896 2.73438 22.2286 2.73438H32.0091L28.6307 15.5792ZM46.331 28.9248L39.4427 24.8947C39.0186 24.6467 38.4941 24.6453 38.0688 24.8907L31.0518 28.9408V18.3136H46.331V28.9248ZM48.7524 15.5792L45.3739 2.73438H55.1545C56.2934 2.73438 57.3643 3.29055 58.0192 4.22242L66.0011 15.5792H48.7524Z" fill="#FB0040"/>
<path d="M15.5262 30.0933C6.96514 30.0933 0 37.0583 0 45.6194C0 49.1664 1.22705 52.6325 3.45598 55.3846C3.45953 55.3893 3.46309 55.3939 3.46678 55.3987L14.448 69.4739C14.7071 69.806 15.1047 70.0001 15.5258 70.0001C15.9469 70.0001 16.3445 69.8061 16.6035 69.4742L27.5324 55.4728C27.5533 55.446 27.573 55.4188 27.5916 55.3911C29.8242 52.6367 31.052 49.1727 31.052 45.6194C31.052 37.0583 24.0871 30.0933 15.5262 30.0933ZM25.3926 53.7605C25.3561 53.8048 25.3226 53.8511 25.2926 53.8986L15.5263 66.4104L5.65086 53.7525C5.63637 53.7325 5.62133 53.7131 5.60561 53.6938C3.75416 51.4222 2.73451 48.5546 2.73451 45.6192C2.73451 38.5659 8.47273 32.8275 15.5261 32.8275C22.5794 32.8275 28.3176 38.5659 28.3176 45.6192C28.3175 48.5862 27.2787 51.4775 25.3926 53.7605Z" fill="#FB0040"/>
<path d="M15.5259 38.2365C11.455 38.2365 8.14311 41.5486 8.14311 45.6194C8.14311 49.6902 11.455 53.0022 15.5259 53.0022C19.5969 53.0022 22.9087 49.6902 22.9087 45.6194C22.9089 41.5486 19.597 38.2365 15.5259 38.2365ZM15.5259 50.2678C12.9627 50.2678 10.8775 48.1826 10.8775 45.6194C10.8775 43.0562 12.9627 40.9709 15.5259 40.9709C18.0891 40.9709 20.1744 43.0562 20.1744 45.6194C20.1744 48.1826 18.0893 50.2678 15.5259 50.2678Z" fill="#FB0040"/>
<path d="M58.3201 52.6271C58.0658 52.3729 57.7131 52.2266 57.3535 52.2266C56.9939 52.2266 56.6412 52.3727 56.3869 52.6271C56.1326 52.8814 55.9863 53.2342 55.9863 53.5938C55.9863 53.9533 56.1326 54.3061 56.3869 54.5602C56.6412 54.8145 56.9939 54.9609 57.3535 54.9609C57.7131 54.9609 58.0658 54.8146 58.3201 54.5602C58.5744 54.3061 58.7207 53.9533 58.7207 53.5938C58.7207 53.2342 58.5744 52.8814 58.3201 52.6271Z" fill="#FB0040"/>
<path d="M52.1757 52.2266H41.084C40.3289 52.2266 39.7168 52.8388 39.7168 53.5938C39.7168 54.3487 40.3289 54.9609 41.084 54.9609H52.1756C52.9307 54.9609 53.5428 54.3487 53.5428 53.5938C53.5429 52.8388 52.9308 52.2266 52.1757 52.2266Z" fill="#FB0040"/>
<path d="M61.2385 45.6641H41.0907C40.3356 45.6641 39.7235 46.2763 39.7235 47.0312C39.7235 47.7862 40.3356 48.3984 41.0907 48.3984H61.2384C61.9936 48.3984 62.6057 47.7862 62.6057 47.0312C62.6057 46.2763 61.9936 45.6641 61.2385 45.6641Z" fill="#FB0040"/>
</svg>
