<svg width="70" height="70" viewBox="0 0 70 70" fill="none" xmlns="http://www.w3.org/2000/svg">
<path d="M22.1416 17.1692C21.8873 16.9149 21.5346 16.7686 21.175 16.7686C20.8154 16.7686 20.4627 16.9149 20.2084 17.1692C19.9542 17.4236 19.8078 17.7764 19.8078 18.136C19.8078 18.4956 19.9541 18.8484 20.2084 19.1027C20.4627 19.3572 20.8154 19.5034 21.175 19.5034C21.5346 19.5034 21.8873 19.3571 22.1416 19.1027C22.3958 18.8484 22.5422 18.4956 22.5422 18.136C22.5422 17.7764 22.3959 17.4236 22.1416 17.1692Z" fill="#FB0040"/>
<path d="M69.6001 5.71731L67.9096 4.02462L69.5996 2.33438C70.1334 1.80041 70.1334 0.934579 69.5996 0.400475C69.0655 -0.133492 68.2001 -0.133492 67.6659 0.400475L65.9769 2.08962L64.3113 0.42167C64.0549 0.165147 63.7074 0.0207502 63.3448 0.0206134L40.2046 0.00775995C40.2032 0.00775995 40.202 0.00775995 40.2008 0.00775995C38.3735 0.00775995 36.6557 0.719352 35.3635 2.01168L23.8163 13.5607C23.2824 14.0946 23.2824 14.9605 23.8163 15.4946C24.3503 16.0286 25.2157 16.0286 25.7499 15.4946L37.2971 3.94558C38.0729 3.16972 39.1039 2.74268 40.2008 2.74268C40.2016 2.74268 40.2024 2.74268 40.2031 2.74268L62.7769 2.75526L64.0437 4.02366L58.9709 9.09724C56.8198 7.8086 53.9838 8.0896 52.1321 9.94133C51.0743 10.9994 50.4917 12.4061 50.4917 13.9023C50.4917 15.3985 51.0743 16.8051 52.1321 17.8632C53.2239 18.9552 54.6582 19.5012 56.0926 19.5012C57.5267 19.5012 58.9609 18.9552 60.0529 17.8632C61.9016 16.0141 62.1845 13.1833 60.9027 11.0329L65.9762 5.95866L67.2655 7.24961L67.2529 29.7962C67.2522 30.8923 66.8251 31.9229 66.0501 32.698L32.6875 66.0653C31.9119 66.841 30.8807 67.2682 29.7839 67.2682C28.6871 67.2682 27.6559 66.841 26.8803 66.0653L3.93723 43.1187C3.16148 42.343 2.73438 41.3115 2.73438 40.2146C2.73438 39.1177 3.16148 38.0863 3.93723 37.3105L18.6747 22.5709C19.2086 22.0369 19.2086 21.171 18.6747 20.6369C18.1407 20.103 17.2752 20.103 16.7411 20.6369L2.00361 35.3766C0.711621 36.6688 0 38.3871 0 40.2146C0 42.0421 0.711621 43.7604 2.00361 45.0526L24.9467 67.9992C26.2804 69.333 28.032 70 29.7839 70C31.5358 70 33.2875 69.333 34.6212 67.9992L67.9835 34.6317C69.2746 33.3404 69.9861 31.6235 69.9872 29.7974L70 6.68433C70.0003 6.3217 69.8563 5.97384 69.6001 5.71731ZM58.1193 15.9291C57.5779 16.4706 56.858 16.7689 56.0926 16.7689C55.3268 16.7689 54.6071 16.4706 54.0657 15.9291C52.948 14.8114 52.948 12.9927 54.0657 11.875C54.6246 11.316 55.3584 11.0366 56.0926 11.0366C56.369 11.0366 56.6453 11.0764 56.9125 11.1557L55.3345 12.734C54.8006 13.2679 54.8006 14.1338 55.3345 14.6679C55.6015 14.9349 55.9513 15.0684 56.3012 15.0684C56.6511 15.0684 57.0009 14.9349 57.2679 14.6679L58.8416 13.094C59.1258 14.0674 58.8853 15.163 58.1193 15.9291Z" fill="#FB0040"/>
<path d="M58.4006 27.529L42.4676 11.5934C40.3569 9.48243 36.9224 9.4827 34.812 11.5934L9.5982 36.8112C8.57568 37.8337 8.01254 39.1933 8.01254 40.6395C8.01254 42.0856 8.57555 43.4453 9.59807 44.4679L25.5313 60.4032C26.5538 61.4259 27.913 61.9891 29.359 61.9891C30.8049 61.9891 32.1645 61.426 33.1867 60.4034L58.4006 35.1856C59.4232 34.1629 59.9862 32.8035 59.9862 31.3573C59.9862 29.9112 59.4232 28.5516 58.4006 27.529ZM56.467 33.2517L31.2532 58.4697C30.7474 58.9757 30.0746 59.2543 29.3591 59.2543C28.6437 59.2543 27.9709 58.9757 27.465 58.4696L11.5317 42.5341C11.0257 42.028 10.7471 41.3553 10.7471 40.6396C10.7469 39.9239 11.0257 39.251 11.5317 38.7451L36.7456 13.5273C37.2679 13.005 37.9538 12.7438 38.6399 12.7438C39.3258 12.7438 40.0118 13.0051 40.534 13.5273L56.467 29.4628C56.973 29.9689 57.2517 30.6416 57.2517 31.3573C57.2517 32.0729 56.973 32.7458 56.467 33.2517Z" fill="#FB0040"/>
<path d="M44.581 27.3539C45.1149 26.8199 45.1149 25.9541 44.581 25.42C44.047 24.886 43.1815 24.886 42.6474 25.42L41.8601 26.2073C39.7581 24.9087 37.0609 25.083 35.3559 26.788C34.3618 27.7823 33.8532 29.1324 33.9237 30.5897C33.992 31.997 34.5979 33.3404 35.6297 34.3724L35.63 34.3727C36.7296 35.473 36.8524 37.1402 35.9036 38.0891C34.9543 39.0382 33.2872 38.9153 32.1871 37.8154C31.0871 36.715 30.9643 35.0476 31.9133 34.0984C32.4472 33.5644 32.4472 32.6986 31.9133 32.1645C31.3793 31.6305 30.5138 31.6305 29.9797 32.1645C28.2748 33.8696 28.1006 36.5672 29.399 38.6697L28.465 39.6038C27.9311 40.1378 27.9311 41.0036 28.465 41.5377C28.7327 41.805 29.0825 41.9385 29.4324 41.9385C29.7824 41.9385 30.1321 41.8049 30.3991 41.538L31.3337 40.6032C32.2522 41.1705 33.2839 41.458 34.2973 41.458C35.6028 41.4578 36.8774 40.9829 37.8373 40.023C39.852 38.0079 39.7295 34.6065 37.5646 32.4399C37.5642 32.4395 37.5639 32.4391 37.5635 32.4386C37.013 31.8881 36.6904 31.1846 36.6551 30.4573C36.6224 29.7802 36.8476 29.1639 37.2896 28.7219C38.2385 27.7728 39.9053 27.8956 41.0055 28.9954L41.0058 28.9958L41.0061 28.996C42.1058 30.0963 42.2285 31.7634 41.2795 32.7125C40.7456 33.2465 40.7456 34.1123 41.2795 34.6464C41.5465 34.9135 41.8964 35.0469 42.2462 35.0469C42.5961 35.0469 42.946 34.9135 43.213 34.6464C44.9179 32.9412 45.0922 30.2436 43.7938 28.1412L44.581 27.3539Z" fill="#FB0040"/>
<path d="M30.7435 50.0232L23.7215 43C23.1876 42.4664 22.3222 42.4662 21.7879 43C21.254 43.534 21.254 44.3998 21.7879 44.9339L28.8101 51.9571C29.0771 52.224 29.4269 52.3576 29.7768 52.3576C30.1267 52.3576 30.4765 52.224 30.7435 51.9571C31.2774 51.4231 31.2774 50.5573 30.7435 50.0232Z" fill="#FB0040"/>
<path d="M19.9758 39.254C19.7217 38.9998 19.3702 38.8534 19.0094 38.8534C18.6498 38.8534 18.2984 38.9997 18.0428 39.254C17.7885 39.5083 17.6422 39.8611 17.6422 40.2221C17.6422 40.5818 17.7883 40.9345 18.0428 41.1889C18.2971 41.4432 18.6498 41.5895 19.0094 41.5895C19.3703 41.5895 19.7217 41.4432 19.9758 41.1889C20.2315 40.9332 20.3778 40.5818 20.3778 40.2221C20.3778 39.8611 20.2315 39.5097 19.9758 39.254Z" fill="#FB0040"/>
</svg>
