<svg width="24" height="22" viewBox="0 0 24 22" fill="none" xmlns="http://www.w3.org/2000/svg">
<path d="M21.3036 2.76815C20.766 2.20759 20.1278 1.76292 19.4253 1.45954C18.7228 1.15615 17.9699 1 17.2095 1C16.4491 1 15.6961 1.15615 14.9936 1.45954C14.2912 1.76292 13.6529 2.20759 13.1153 2.76815L11.9997 3.93095L10.8841 2.76815C9.79827 1.6364 8.32556 1.00059 6.78997 1.00059C5.25437 1.00059 3.78167 1.6364 2.69584 2.76815C1.61001 3.89989 1 5.43487 1 7.03541C1 8.63594 1.61001 10.1709 2.69584 11.3027L11.9997 21L21.3036 11.3027C21.8414 10.7424 22.268 10.0771 22.5591 9.34495C22.8502 8.61276 23 7.82796 23 7.03541C23 6.24285 22.8502 5.45806 22.5591 4.72587C22.268 3.99368 21.8414 3.32844 21.3036 2.76815Z" stroke="white" stroke-width="2" stroke-linecap="round" stroke-linejoin="round"/>
</svg>
