<svg width="70" height="58" viewBox="0 0 70 58" fill="none" xmlns="http://www.w3.org/2000/svg">
<path d="M26.8658 35.55H16.8926C16.1375 35.55 15.5254 36.1511 15.5254 36.8928C15.5254 37.6344 16.1375 38.2355 16.8926 38.2355H26.8658C27.6209 38.2355 28.233 37.6344 28.233 36.8928C28.233 36.1511 27.6209 35.55 26.8658 35.55Z" fill="#FB0040"/>
<path d="M43.5877 35.55H33.6145C32.8594 35.55 32.2473 36.1511 32.2473 36.8928C32.2473 37.6344 32.8594 38.2355 33.6145 38.2355H43.5877C44.3428 38.2355 44.9549 37.6344 44.9549 36.8928C44.9549 36.1511 44.3428 35.55 43.5877 35.55Z" fill="#FB0040"/>
<path d="M60.5411 35.55H50.5679C49.8128 35.55 49.2007 36.1511 49.2007 36.8928C49.2007 37.6344 49.8128 38.2355 50.5679 38.2355H60.5411C61.2962 38.2355 61.9083 37.6344 61.9083 36.8928C61.9083 36.1511 61.2962 35.55 60.5411 35.55Z" fill="#FB0040"/>
<path d="M56.8358 41.0703C55.144 41.0703 53.6262 41.8112 52.5975 42.9788C51.5688 41.8112 50.051 41.0703 48.3592 41.0703C45.2684 41.0703 42.7537 43.5401 42.7537 46.5757C42.7537 49.6114 45.2684 52.0811 48.3592 52.0811C50.051 52.0811 51.5688 51.3402 52.5975 50.1726C53.6262 51.3402 55.144 52.0811 56.8358 52.0811C59.9266 52.0811 62.4412 49.6114 62.4412 46.5757C62.4412 43.5401 59.9266 41.0703 56.8358 41.0703ZM48.3592 49.3956C46.776 49.3956 45.4881 48.1307 45.4881 46.5757C45.4881 45.0208 46.776 43.7559 48.3592 43.7559C49.9424 43.7559 51.2303 45.0209 51.2303 46.5757C51.2303 48.1307 49.9424 49.3956 48.3592 49.3956ZM56.8358 49.3956C55.2526 49.3956 53.9647 48.1307 53.9647 46.5757C53.9647 45.0208 55.2527 43.7559 56.8358 43.7559C58.419 43.7559 59.7069 45.0208 59.7069 46.5757C59.7069 48.1307 58.419 49.3956 56.8358 49.3956Z" fill="#FB0040"/>
<path d="M28.5566 21.3988H16.8264C16.0713 21.3988 15.4592 21.9999 15.4592 22.7415V30.0953C15.4592 30.8369 16.0713 31.4381 16.8264 31.4381H28.5566C29.3117 31.4381 29.9238 30.8369 29.9238 30.0953V22.7415C29.9238 21.9999 29.3117 21.3988 28.5566 21.3988ZM27.1894 28.7525H18.1936V24.0843H27.1894V28.7525Z" fill="#FB0040"/>
<path d="M24.4027 55.3144H24.3813C23.6262 55.3144 23.0141 55.9156 23.0141 56.6572C23.0141 57.3988 23.6262 58 24.3813 58H24.4027C25.1578 58 25.7698 57.3988 25.7698 56.6572C25.7698 55.9156 25.1578 55.3144 24.4027 55.3144Z" fill="#FB0040"/>
<path d="M65.3744 15.7109H62.6172V4.54331C62.6172 2.03835 60.5422 0.000268922 57.9916 0.000268922H38.6914C37.9363 0.000268922 37.3242 0.601434 37.3242 1.34305C37.3242 2.08467 37.9363 2.68584 38.6914 2.68584H57.9916C59.0343 2.68584 59.8828 3.51904 59.8828 4.54331V8.59409H2.73438V4.54331C2.73438 3.51917 3.58272 2.68584 4.62561 2.68584H26.1133C26.8684 2.68584 27.4805 2.08467 27.4805 1.34305C27.4805 0.601434 26.8684 0.000268922 26.1133 0.000268922H4.62561C2.07498 0.000268922 0 2.03835 0 4.54331V37.7462C0 40.2512 2.07498 42.2893 4.62561 42.2893H7.38281V53.4568C7.38281 55.9618 9.45779 57.9999 12.0084 57.9999H18.4477C19.2028 57.9999 19.8149 57.3987 19.8149 56.6571C19.8149 55.9155 19.2028 55.3143 18.4477 55.3143H12.0084C10.9657 55.3143 10.1172 54.4811 10.1172 53.4568V20.2539C10.1172 19.2298 10.9655 18.3964 12.0084 18.3964H65.3745C66.4173 18.3964 67.2658 19.2296 67.2658 20.2539V53.4568C67.2658 54.481 66.4174 55.3143 65.3745 55.3143H29.4839C28.7288 55.3143 28.1168 55.9155 28.1168 56.6571C28.1168 57.3987 28.7288 57.9999 29.4839 57.9999H65.3744C67.9249 57.9999 70 55.9619 70 53.4568V20.2539C70 17.7489 67.925 15.7109 65.3744 15.7109ZM7.38281 20.2539V39.6037H4.62561C3.58285 39.6037 2.73438 38.7705 2.73438 37.7462V19.8735H7.40031C7.38965 19.999 7.38281 20.1257 7.38281 20.2539ZM59.8828 15.7109H12.0084C10.66 15.7109 9.44467 16.2809 8.59838 17.1879H2.73438V11.2797H59.8828V15.7109Z" fill="#FB0040"/>
<path d="M33.3689 0.393436C33.1147 0.143678 32.7619 0 32.4023 0C32.0428 0 31.69 0.143678 31.4357 0.393436C31.1814 0.643194 31.0352 0.989633 31.0352 1.34279C31.0352 1.69728 31.1814 2.04238 31.4357 2.29214C31.69 2.54189 32.0428 2.68557 32.4023 2.68557C32.7619 2.68557 33.1147 2.54189 33.3689 2.29214C33.6232 2.04238 33.7695 1.69728 33.7695 1.34279C33.7695 0.989633 33.6232 0.643194 33.3689 0.393436Z" fill="#FB0040"/>
</svg>
